<?xml version="1.0" encoding="UTF-8" standalone="no"?>
<!DOCTYPE svg PUBLIC "-//W3C//DTD SVG 1.1//EN"
 "http://www.w3.org/Graphics/SVG/1.1/DTD/svg11.dtd">
<!-- Generated by graphviz version 2.43.0 (0)
 -->
<!-- Title: G Pages: 1 -->
<svg width="183pt" height="66pt"
 viewBox="0.00 0.00 183.20 66.20" xmlns="http://www.w3.org/2000/svg" xmlns:xlink="http://www.w3.org/1999/xlink">
<g id="graph0" class="graph" transform="scale(1 1) rotate(0) translate(21.6 44.6)">
<title>G</title>
<polygon fill="#111111" stroke="transparent" points="-21.6,21.6 -21.6,-44.6 161.6,-44.6 161.6,21.6 -21.6,21.6"/>
<!-- analyze&#45;codebase.js -->
<g id="node1" class="node">
<title>analyze&#45;codebase.js</title>
<path fill="none" stroke="#cfffac" d="M132.33,-23C132.33,-23 7.67,-23 7.67,-23 3.83,-23 0,-19.17 0,-15.33 0,-15.33 0,-7.67 0,-7.67 0,-3.83 3.83,0 7.67,0 7.67,0 132.33,0 132.33,0 136.17,0 140,-3.83 140,-7.67 140,-7.67 140,-15.33 140,-15.33 140,-19.17 136.17,-23 132.33,-23"/>
<text text-anchor="middle" x="70" y="-7.8" font-family="Arial" font-size="14.00" fill="#cfffac">analyze&#45;codebase.js</text>
</g>
</g>
</svg>
